<svg width="25" height="22" viewBox="0 0 25 22" fill="none" xmlns="http://www.w3.org/2000/svg">
<path d="M24.3421 21.9997H0.657995C0.483511 21.9997 0.316174 21.9315 0.192795 21.8102C0.0694161 21.6888 0.000102582 21.5242 0.000102582 21.3526V10.9998C0.000102582 10.8282 0.0694161 10.6637 0.192795 10.5423C0.316174 10.421 0.483511 10.3528 0.657995 10.3528C0.832478 10.3528 0.999816 10.421 1.12319 10.5423C1.24657 10.6637 1.31589 10.8282 1.31589 10.9998V20.7056H23.6842V8.41164C23.6842 8.24003 23.7535 8.07545 23.8769 7.95411C24.0003 7.83276 24.1676 7.76459 24.3421 7.76459C24.5166 7.76459 24.6839 7.83276 24.8073 7.95411C24.9307 8.07545 25 8.24003 25 8.41164V21.3526C25 21.5242 24.9307 21.6888 24.8073 21.8102C24.6839 21.9315 24.5166 21.9997 24.3421 21.9997Z" fill="#2185C7"/>
<path d="M17 13.2516C16.883 13.2532 16.7676 13.224 16.6659 13.1672C16.5641 13.1103 16.4796 13.0278 16.4211 12.928C16.3766 12.8553 16.3474 12.7745 16.3352 12.6905C16.323 12.6064 16.3281 12.5208 16.3502 12.4388C16.3723 12.3567 16.4109 12.2798 16.4638 12.2127C16.5166 12.1456 16.5827 12.0896 16.6579 12.0481L24.0132 7.85518C24.1616 7.78921 24.3296 7.77973 24.4847 7.82857C24.6398 7.87742 24.771 7.98111 24.8529 8.11959C24.9347 8.25807 24.9614 8.42149 24.9279 8.57823C24.8943 8.73497 24.8028 8.87389 24.6711 8.96811L17.329 13.161C17.2302 13.221 17.1162 13.2523 17 13.2516Z" fill="#2185C7"/>
<path d="M10.3422 14.5845C10.2258 14.5867 10.1114 14.5552 10.0132 14.4939L0.329049 8.9681C0.22777 8.91375 0.143565 8.83315 0.085574 8.73505C0.0275835 8.63695 -0.00197658 8.5251 0.000102589 8.41164V7.11754C0.00115216 7.00142 0.0333349 6.88763 0.0934014 6.78765C0.153468 6.68768 0.239291 6.60506 0.342206 6.54814L12.1843 0.0776459C12.2815 0.0266664 12.3899 0 12.5001 0C12.6102 0 12.7187 0.0266664 12.8158 0.0776459L23.5263 5.92697C23.6779 6.01125 23.7894 6.1512 23.8362 6.31615C23.8831 6.4811 23.8616 6.6576 23.7763 6.80696C23.6904 6.95577 23.5491 7.06594 23.3821 7.11423C23.2152 7.16251 23.0357 7.14514 22.8816 7.06578L12.5001 1.38469L1.31589 7.49283V8.03635L10.6711 13.381C10.7946 13.453 10.8907 13.5628 10.9448 13.6936C10.999 13.8245 11.0081 13.9691 10.9708 14.1055C10.9335 14.2418 10.8519 14.3625 10.7384 14.449C10.6249 14.5355 10.4857 14.5831 10.3422 14.5845Z" fill="#2185C7"/>
<path d="M19.079 12.061C18.9045 12.061 18.7372 11.9928 18.6138 11.8715C18.4904 11.7501 18.4211 11.5856 18.4211 11.414V6.47049H6.57902V11.414C6.57902 11.5856 6.50971 11.7501 6.38633 11.8715C6.26295 11.9928 6.09562 12.061 5.92113 12.061C5.74665 12.061 5.57931 11.9928 5.45593 11.8715C5.33255 11.7501 5.26324 11.5856 5.26324 11.414V5.82344C5.26324 5.65184 5.33255 5.48726 5.45593 5.36591C5.57931 5.24457 5.74665 5.17639 5.92113 5.17639H19.079C19.2535 5.17639 19.4208 5.24457 19.5442 5.36591C19.6676 5.48726 19.7369 5.65184 19.7369 5.82344V11.414C19.7369 11.5856 19.6676 11.7501 19.5442 11.8715C19.4208 11.9928 19.2535 12.061 19.079 12.061Z" fill="#2185C7"/>
<path d="M24.3421 21.9997C24.1928 22.0046 24.047 21.9537 23.9342 21.8573L12.0922 12.7986C11.9723 12.6874 11.8993 12.5359 11.8875 12.3742C11.8758 12.2125 11.9262 12.0524 12.0287 11.9255C12.1313 11.7986 12.2786 11.7142 12.4414 11.6889C12.6042 11.6637 12.7707 11.6995 12.9079 11.7892L24.75 20.8479C24.8856 20.9547 24.9727 21.1098 24.9924 21.2795C25.0121 21.4492 24.9628 21.6197 24.8553 21.7538C24.7947 21.8308 24.7169 21.893 24.6279 21.9356C24.5389 21.9783 24.4411 22.0002 24.3421 21.9997Z" fill="#2185C7"/>
<path d="M0.657995 21.9997C0.559008 22.0002 0.461232 21.9783 0.372243 21.9356C0.283254 21.893 0.205442 21.8308 0.144839 21.7538C0.0372679 21.6197 -0.0120336 21.4492 0.00768527 21.2795C0.0274041 21.1098 0.114544 20.9547 0.250102 20.8479L12.0922 11.7892C12.1584 11.7277 12.2369 11.6804 12.3227 11.6503C12.4085 11.6202 12.4998 11.608 12.5906 11.6144C12.6815 11.6208 12.77 11.6456 12.8506 11.6874C12.9312 11.7292 13.0021 11.787 13.0588 11.8572C13.1155 11.9273 13.1567 12.0082 13.1799 12.0949C13.2031 12.1815 13.2078 12.272 13.1936 12.3605C13.1794 12.449 13.1467 12.5336 13.0976 12.6091C13.0484 12.6845 12.9838 12.749 12.9079 12.7986L1.06589 21.8573C0.95306 21.9537 0.807352 22.0046 0.657995 21.9997Z" fill="#2185C7"/>
</svg>
