<svg width="25" height="24" viewBox="0 0 25 24" fill="none" xmlns="http://www.w3.org/2000/svg">
<path d="M16.7735 23.6762C16.5903 23.6736 16.4155 23.5987 16.2872 23.4678C16.2196 23.4067 16.1673 23.3305 16.1344 23.2455C16.1149 23.1539 16.1149 23.0592 16.1344 22.9676C16.1333 22.8765 16.1513 22.7862 16.1872 22.7024C16.223 22.6187 16.2761 22.5433 16.3428 22.4813C16.4401 22.3866 16.5625 22.3219 16.6955 22.2948C16.8286 22.2677 16.9666 22.2794 17.0931 22.3285C17.1773 22.363 17.253 22.4151 17.3154 22.4813C17.3822 22.5433 17.4352 22.6187 17.4711 22.7024C17.507 22.7862 17.525 22.8765 17.5238 22.9676C17.5434 23.0592 17.5434 23.1539 17.5238 23.2455C17.491 23.3305 17.4386 23.4067 17.371 23.4678C17.2944 23.5465 17.2005 23.6062 17.0968 23.6424C16.9931 23.6786 16.8825 23.6902 16.7735 23.6762Z" fill="#2185C7"/>
<path d="M19.4135 23.9958C19.2292 24.0161 19.0445 23.9623 18.8999 23.8464C18.7553 23.7304 18.6626 23.5618 18.6424 23.3775C18.6221 23.1933 18.6758 23.0085 18.7918 22.8639C18.9078 22.7193 19.0764 22.6266 19.2607 22.6064C19.5993 22.5346 19.9117 22.3712 20.1638 22.1339C20.7891 21.5365 22.6648 19.7441 22.6787 18.8965C22.6787 18.6186 22.4425 18.3546 22.0118 17.91C21.0411 16.9661 19.9474 16.1576 18.7605 15.5063C18.6554 15.4515 18.5386 15.4229 18.42 15.4229C18.3015 15.4229 18.1847 15.4515 18.0796 15.5063L16.3428 16.4372C16.2409 16.4936 16.1259 16.5224 16.0093 16.5206C15.7731 16.5206 13.6473 16.3955 10.6878 13.4221C7.72822 10.4487 7.60317 8.29502 7.58928 8.05881C7.58746 7.94228 7.6162 7.82731 7.67265 7.72534L8.5619 5.98853C8.62032 5.88459 8.65101 5.76736 8.65101 5.64812C8.65101 5.52888 8.62032 5.41164 8.5619 5.3077C7.91101 4.11685 7.0973 3.02255 6.14425 2.05639C5.69963 1.62566 5.43563 1.43113 5.15774 1.38945C4.31018 1.38945 2.51779 3.2791 1.92032 3.90436C1.73467 4.10811 1.59219 4.34733 1.50145 4.60761C1.41071 4.86789 1.37359 5.14385 1.39233 5.41886C1.39233 8.62849 6.36656 14.0057 8.24232 15.798C10.2101 17.8233 12.3902 19.6307 14.7449 21.1891C14.8233 21.2349 14.8917 21.2959 14.9461 21.3685C15.0006 21.441 15.0399 21.5238 15.0619 21.6118C15.0839 21.6998 15.0881 21.7914 15.0743 21.881C15.0604 21.9707 15.0287 22.0567 14.9812 22.1339C14.8835 22.2903 14.7287 22.4024 14.5497 22.4465C14.3707 22.4906 14.1816 22.4632 14.0224 22.3701C11.5738 20.7718 9.30912 18.9079 7.26971 16.8123C6.99182 16.5484 0.100143 9.8651 0.00288184 5.47443C-0.0157084 5.022 0.0557863 4.57037 0.213213 4.1458C0.370639 3.72123 0.610859 3.33216 0.919919 3.00121C3.00409 0.847565 4.10176 0.0138945 5.12995 0C5.52604 0.0200728 5.91324 0.124695 6.26554 0.306835C6.61783 0.488974 6.92706 0.744412 7.17244 1.05598C8.2182 2.11062 9.11567 3.30258 9.84019 4.59908C10.0142 4.91134 10.1055 5.26287 10.1055 5.62033C10.1055 5.97779 10.0142 6.32932 9.84019 6.64157L9.02041 8.18386C9.47595 9.80742 10.4047 11.2585 11.6882 12.3522C12.7824 13.6351 14.2333 14.5636 15.8565 15.02L17.3988 14.2002C17.7111 14.0262 18.0626 13.9349 18.42 13.9349C18.7775 13.9349 19.129 14.0262 19.4413 14.2002C20.7493 14.9312 21.9508 15.8381 23.0122 16.8957C23.317 17.135 23.5684 17.4353 23.7503 17.7775C23.9321 18.1197 24.0404 18.4961 24.0682 18.8826C24.0682 19.8969 23.2206 21.078 21.1225 23.051C20.6902 23.4665 20.1518 23.7549 19.5663 23.8847L19.4135 23.9958Z" fill="#2185C7"/>
<path d="M21.6922 10.3236C21.5079 10.3236 21.3312 10.2504 21.201 10.1201C21.0707 9.98985 20.9975 9.81314 20.9975 9.62889C20.9914 7.96528 20.327 6.37172 19.1495 5.19654C18.536 4.5887 17.8025 4.11548 16.9959 3.80709C16.911 3.77334 16.8336 3.7232 16.7682 3.65954C16.7027 3.59589 16.6504 3.51996 16.6143 3.4361C16.5782 3.35223 16.5589 3.26207 16.5576 3.17077C16.5563 3.07946 16.5731 2.9888 16.6068 2.90395C16.6406 2.8191 16.6907 2.74174 16.7544 2.67627C16.818 2.6108 16.8939 2.55851 16.9778 2.52238C17.0617 2.48625 17.1518 2.467 17.2431 2.46572C17.3344 2.46444 17.4251 2.48115 17.51 2.5149C18.9511 3.06628 20.1933 4.03804 21.0753 5.3041C21.9573 6.57016 22.4385 8.07209 22.4564 9.615C22.453 9.79949 22.3791 9.97568 22.2499 10.1074C22.1208 10.2392 21.9461 10.3166 21.7617 10.3236H21.6922Z" fill="#2185C7"/>
<path d="M14.7311 3.36247C14.6443 3.38314 14.5538 3.38314 14.4671 3.36247C14.3126 3.28637 14.1897 3.15854 14.1197 3.00121C14.0829 2.91805 14.064 2.82814 14.064 2.73722C14.064 2.6463 14.0829 2.55638 14.1197 2.47322C14.1938 2.3059 14.3275 2.17217 14.4948 2.09807C14.664 2.02859 14.8537 2.02859 15.0228 2.09807C15.1079 2.13095 15.184 2.1833 15.2452 2.25091C15.3113 2.3133 15.3634 2.38909 15.398 2.47322C15.4347 2.55638 15.4537 2.6463 15.4537 2.73722C15.4537 2.82814 15.4347 2.91805 15.398 3.00121C15.3634 3.08535 15.3113 3.16114 15.2452 3.22353C15.184 3.29114 15.1079 3.34348 15.0228 3.37636C14.9259 3.39595 14.8257 3.39117 14.7311 3.36247Z" fill="#2185C7"/>
<path d="M17.4961 10.3236C17.3105 10.32 17.1339 10.2437 17.0039 10.1112C16.874 9.97872 16.8013 9.80055 16.8013 9.615C16.7931 9.09119 16.5784 8.59182 16.2039 8.22555C15.8119 7.84525 15.2909 7.62691 14.7449 7.61419C14.5607 7.61419 14.384 7.54099 14.2537 7.41071C14.1234 7.28042 14.0502 7.10371 14.0502 6.91946C14.0502 6.73521 14.1234 6.5585 14.2537 6.42822C14.384 6.29793 14.5607 6.22474 14.7449 6.22474C15.2021 6.22104 15.6555 6.30836 16.0786 6.48161C16.5017 6.65487 16.8861 6.91059 17.2094 7.23389C17.5327 7.55718 17.7884 7.94159 17.9617 8.3647C18.135 8.78781 18.2223 9.24117 18.2186 9.69836C18.201 9.87522 18.1163 10.0386 17.9819 10.1549C17.8475 10.2712 17.6736 10.3316 17.4961 10.3236Z" fill="#2185C7"/>
</svg>
